# xmcd CD database file
#
# Track frame offsets:
#	150
#	39565
#	66663
#	94658
#	125165
#	148990
#	187892
#	211767
#	232520
#	273085
#	299957
#
# Disc length: 4422 seconds
#
# Revision: 0
# Processed by: cddbd v1.5.1PL0 Copyright (c) Steve Scherf et al.
# Submitted via: Feurio! 1.68 - http://www.feurio.com
#
DISCID=ab11440b
DTITLE=Various Artist - So Many Roads
DYEAR=1900
DGENRE=Blues
TTITLE0=B.B. King and Gary Moore - The Thrill Is Gone
TTITLE1=Dire Straits - You And Your Friend
TTITLE2=John Mayall and Friends - So Many Roads
TTITLE3=Gary Moore - Still Got The Blues
TTITLE4=Jeff Healy Band - While My Guitar Gently Weeps
TTITLE5=Eric Clapton and B.B. King - Three O' Clock Blues
TTITLE6=Santana - Black Magic Woman   
TTITLE7=Gary Moore                                          STORY OF THE BLUES 
TTITLE7=Story Of The Blues
TTITLE8=Mark Knopfler                                      BROTHERS IN ARMS   
TTITLE8=8.59 - Brothers In Arms
TTITLE9=John Mayall                                                            
TTITLE9=CALIFONIA    - California
TTITLE10=Gary Moore - Parisienne Walkways
EXTD=
EXTT0=
EXTT1=
EXTT2=
EXTT3=
EXTT4=
EXTT5=
EXTT6=
EXTT7=
EXTT8=
EXTT9=
EXTT10=
PLAYORDER=
